<?xml version="1.0" standalone="no"?>
<!DOCTYPE svg PUBLIC "-//W3C//DTD SVG 1.1//EN" "http://www.w3.org/Graphics/SVG/1.1/DTD/svg11.dtd" >
<svg xmlns="http://www.w3.org/2000/svg">
<metadata></metadata>
<defs>
<font id="univers_63_extendedbold" horiz-adv-x="1515" >
<font-face units-per-em="2048" ascent="1638" descent="-410" />
<missing-glyph horiz-adv-x="757" />
<glyph horiz-adv-x="0" />
<glyph horiz-adv-x="682" />
<glyph unicode=" "  horiz-adv-x="757" />
<glyph unicode="&#x09;" horiz-adv-x="757" />
<glyph unicode="&#xa0;" horiz-adv-x="757" />
<glyph unicode="!" horiz-adv-x="1064" d="M377 1479h311l-41 -1069h-229zM389 0v287h287v-287h-287z" />
<glyph unicode="&#x22;" horiz-adv-x="1366" d="M389 1020v459h229v-459h-229zM748 1020v459h229v-459h-229z" />
<glyph unicode="#" d="M244 401v185h200l33 245h-174v185h201l57 401h197l-58 -401h201l57 401h197l-57 -401h174v-185h-201l-33 -245h174v-185h-200l-58 -401h-196l57 401h-201l-57 -401h-197l58 401h-174zM641 586h201l32 245h-200z" />
<glyph unicode="$" d="M29 463h331q22 -249 320 -283v434l-82 11q-520 65 -520 426q0 113 48.5 201.5t133.5 144t191 86t229 35.5v96h147v-96q281 -19 431.5 -144t158.5 -338h-332q-7 116 -71 177.5t-187 84.5v-409l234 -33q98 -14 174.5 -45t123 -71.5t76 -91.5t41 -100t11.5 -102 q0 -217 -168.5 -342.5t-491.5 -142.5v-141h-147v141q-306 8 -479 140t-172 362zM422 1096q0 -82 55 -124.5t160 -56.5l43 -6v389q-106 -7 -182 -59.5t-76 -142.5zM827 180q160 10 238 75t78 151q0 78 -57.5 119t-182.5 59l-76 10v-414z" />
<glyph unicode="%" horiz-adv-x="2426" d="M182 1071q0 183 117 284t313 101t313 -101t117 -284q0 -193 -116 -297t-314 -104t-314 104t-116 297zM432 1063q0 -221 180 -221q181 0 181 221t-181 221q-180 0 -180 -221zM545 -72l1118 1561h217l-1118 -1561h-217zM1384 362q0 183 117.5 284.5t313.5 101.5t313 -101.5 t117 -284.5q0 -193 -116 -297t-314 -104t-314.5 104t-116.5 297zM1634 354q0 -221 181 -221q180 0 180 221t-180 221q-181 0 -181 -221z" />
<glyph unicode="&#x26;" horiz-adv-x="2123" d="M143 397q0 107 73 205.5t222 157.5l164 67q-101 67 -162 156t-61 174q0 89 42.5 159.5t114.5 113.5t161 65.5t188 22.5q46 0 96.5 -7.5t107 -24t106.5 -45.5t90.5 -68t64.5 -96.5t24 -125.5q0 -112 -86.5 -209.5t-216.5 -144.5l391 -314q70 57 118.5 186t53.5 240h299 q0 -155 -66.5 -316.5t-189.5 -281.5l398 -311h-463l-139 125q-248 -164 -621 -164q-155 0 -279 26.5t-203 69.5t-131.5 101t-74 117t-21.5 122zM487 397q0 -105 103 -166t266 -61q114 0 223 33t174 86l-444 368l-172 -69q-68 -27 -109 -80t-41 -111zM690 1157 q0 -33 15 -62.5t30 -44.5t39 -34l111 -84l57 24q84 36 121 82.5t37 110.5q0 72 -61 116t-146 44q-94 0 -148.5 -42.5t-54.5 -109.5z" />
<glyph unicode="'" horiz-adv-x="757" d="M264 1020v459h230v-459h-230z" />
<glyph unicode="(" horiz-adv-x="757" d="M172 618q0 404 317 900h224q-135 -282 -194.5 -492t-59.5 -408t59.5 -407.5t194.5 -491.5h-224q-317 496 -317 899z" />
<glyph unicode=")" horiz-adv-x="757" d="M45 -281q135 282 194.5 491.5t59.5 407.5t-59.5 408t-194.5 492h223q318 -497 318 -900q0 -402 -318 -899h-223z" />
<glyph unicode="*" horiz-adv-x="1062" d="M166 1004l250 104l-250 104l92 160l215 -162l-35 269h185l-33 -269l215 164l92 -160l-248 -106l248 -102l-92 -160l-215 162l35 -269h-185l33 269l-215 -164z" />
<glyph unicode="+" horiz-adv-x="1228" d="M96 403v230h404v403h229v-403h404v-230h-404v-403h-229v403h-404z" />
<glyph unicode="," horiz-adv-x="757" d="M115 -172l176 459h332l-267 -459h-241z" />
<glyph unicode="-" horiz-adv-x="757" d="M94 432v230h570v-230h-570z" />
<glyph unicode="." horiz-adv-x="757" d="M236 0v287h286v-287h-286z" />
<glyph unicode="/" horiz-adv-x="909" d="M20 -39l619 1557h250l-619 -1557h-250z" />
<glyph unicode="0" d="M92 709q0 116 18 217.5t65.5 201.5t122 170.5t196.5 114t280 43.5q305 0 477 -198t172 -549q0 -168 -41 -304t-122 -235.5t-208.5 -154t-293.5 -54.5t-294 54.5t-209 154t-122 235.5t-41 304zM416 709q0 -529 354 -529q78 0 138 32.5t95.5 83t58 121.5t30.5 139t8 144 q0 537 -332 537q-60 0 -109 -13.5t-95.5 -49.5t-78 -94t-50.5 -152t-19 -219z" />
<glyph unicode="1" d="M285 926v274q143 45 239 94t181 123h303v-1417h-312v1130q-122 -117 -411 -204z" />
<glyph unicode="2" d="M106 0v268l271 162q369 221 512 348.5t143 243.5q0 89 -78.5 147t-197.5 58q-135 0 -210 -60t-75 -163v-19h-324q0 234 151.5 352.5t473.5 118.5q126 0 228 -25.5t167 -67t109 -97t62 -111.5t18 -115q0 -80 -30 -155.5t-101 -160t-197.5 -176.5t-308.5 -192l-221 -120v-7 h886v-229h-1278z" />
<glyph unicode="3" d="M80 418h323q15 -238 340 -238q168 0 246 64.5t78 158.5q0 119 -92 165t-285 46h-82v230h78q178 0 262 47t84 147q0 94 -78.5 146.5t-201.5 52.5q-129 0 -208.5 -47t-82.5 -148h-324q0 90 34 162t91 118.5t136 77t164.5 43.5t182.5 13q133 0 240 -23t175 -60.5t113 -89 t64 -105t19 -111.5q0 -131 -85.5 -212t-246.5 -114v-4q73 -5 139 -29.5t119.5 -66t85 -104t31.5 -138.5q0 -203 -176.5 -320.5t-491.5 -117.5q-118 0 -214 15t-161.5 39.5t-115 62t-78 75t-47 86.5t-25.5 89.5t-10 89.5z" />
<glyph unicode="4" d="M43 315v318l768 784h393v-872h269v-230h-269v-315h-311v315h-850zM324 545h569v598z" />
<glyph unicode="5" d="M145 389v2h332q10 -105 96 -158t222 -53q127 0 216 78.5t89 185.5q0 87 -47.5 150t-121.5 93t-163 30q-62 0 -118.5 -17t-104 -56t-68.5 -95l-305 8l41 860h1096v-229h-805l-25 -371q83 69 173 99t216 30q156 0 280 -55.5t199.5 -168t75.5 -265.5q0 -230 -163.5 -363 t-464.5 -133q-99 0 -186 10.5t-174.5 40t-149.5 76t-101 123.5t-39 178z" />
<glyph unicode="6" d="M106 707q0 190 53 335t149 234.5t225 134.5t288 45q83 0 161 -14.5t151.5 -47.5t128 -81t87.5 -121t33 -162h-323q0 99 -74 153t-186 54q-103 0 -176.5 -33.5t-116 -96.5t-63 -141.5t-25.5 -181.5q99 84 200 116t250 32q251 0 403 -126.5t152 -320.5q0 -114 -42 -210 t-120.5 -166t-199 -109t-270.5 -39q-190 0 -323.5 49.5t-212.5 148t-114 232.5t-35 316zM451 446q0 -114 83.5 -190t237.5 -76q143 0 235.5 69.5t92.5 203.5q0 119 -91 189.5t-225 70.5q-142 0 -237.5 -69t-95.5 -198z" />
<glyph unicode="7" d="M117 1188v229h1249v-241l-655 -1176h-381l704 1188h-917z" />
<glyph unicode="8" d="M92 387q0 130 86 220.5t260 127.5v4q-311 72 -311 322q0 78 36 147t108.5 125.5t197.5 89.5t289 33t289 -33t197.5 -89.5t108.5 -125.5t36 -147q0 -250 -312 -322v-4q174 -37 260 -127.5t86 -220.5q0 -43 -13 -88t-42 -94t-81 -92t-122.5 -77.5t-175 -54.5t-231.5 -20 q-151 0 -270.5 29t-192 74t-120 103.5t-65.5 112.5t-18 107zM416 401q0 -104 93.5 -162.5t248.5 -58.5t248.5 58.5t93.5 162.5q0 224 -342 224q-154 0 -248 -57t-94 -167zM451 1034q0 -86 85.5 -138t221.5 -52t221.5 52t85.5 138q0 69 -45.5 116.5t-112.5 67t-149 19.5 t-149 -19.5t-112.5 -67t-45.5 -116.5z" />
<glyph unicode="9" d="M92 961q0 230 168.5 362.5t468.5 132.5q186 0 317 -47t211 -144.5t116 -237.5t36 -335q0 -202 -48 -345t-142.5 -227t-220.5 -121.5t-296 -37.5q-263 0 -423 109.5t-160 279.5v41h317q26 -211 291 -211q94 0 163.5 28t108.5 70t62 103.5t30 116t7 120.5v52 q-159 -156 -436 -156q-91 0 -173.5 16t-155.5 51.5t-126 87t-84 126.5t-31 166zM416 973q0 -101 82 -170.5t225 -69.5q142 0 238 67.5t96 180.5q0 120 -89.5 188t-236.5 68q-84 0 -147 -22.5t-98.5 -61.5t-52.5 -84t-17 -96z" />
<glyph unicode=":" horiz-adv-x="757" d="M236 0v287h286v-287h-286zM236 741v287h286v-287h-286z" />
<glyph unicode=";" horiz-adv-x="757" d="M115 -172l176 459h332l-267 -459h-241zM266 741v287h287v-287h-287z" />
<glyph unicode="&#x3c;" horiz-adv-x="1228" d="M96 426v184l1037 443v-219l-738 -316l738 -315v-219z" />
<glyph unicode="=" horiz-adv-x="1228" d="M96 178v230h1037v-230h-1037zM96 629v229h1037v-229h-1037z" />
<glyph unicode="&#x3e;" horiz-adv-x="1228" d="M96 -16v219l738 315l-738 316v219l1037 -443v-184z" />
<glyph unicode="?" horiz-adv-x="1366" d="M258 1249v230q187 39 365 39q112 0 200.5 -10t171.5 -36.5t138 -69.5t87.5 -113.5t32.5 -164.5q0 -97 -54 -181t-187 -159l-183 -100q-69 -37 -95.5 -83.5t-26.5 -121.5v-61h-250v121q0 104 27.5 160t99.5 102l239 153q53 33 76 69t23 83q0 182 -314 182q-214 0 -350 -39 zM438 0v287h287v-287h-287z" />
<glyph unicode="@" horiz-adv-x="1638" d="M41 739q0 160 59.5 303t164 248t256 166.5t327.5 61.5q144 0 279 -45.5t239.5 -126t167.5 -201.5t63 -262q0 -93 -23 -174t-60.5 -138.5t-86.5 -105t-98.5 -77t-99 -49.5t-86.5 -28t-62 -8q-137 0 -143 111h-4q-38 -53 -99 -82t-133 -29q-128 0 -215.5 96.5t-87.5 249.5 q0 125 53.5 238t152 184.5t218.5 71.5q163 0 250 -129l25 104h176l-107 -479q-16 -75 -16 -113q0 -21 14 -36t39 -15q70 0 139.5 100t69.5 250q0 244 -154.5 376t-410.5 132q-133 0 -244 -45t-186.5 -124t-117.5 -189t-42 -238q0 -278 173.5 -441t453.5 -163q119 0 228 40 t194 110h196q-111 -157 -279 -239.5t-384 -82.5q-130 0 -252 39t-220.5 111t-172 168t-114 214.5t-40.5 245.5zM604 678q0 -79 45 -128.5t125 -49.5q107 0 174.5 74.5t67.5 179.5q0 90 -48 141t-130 51q-103 0 -168.5 -79.5t-65.5 -188.5z" />
<glyph unicode="A" horiz-adv-x="1972" d="M23 0l753 1479h418l756 -1479h-394l-170 332h-851l-156 -332h-356zM653 573h615l-307 644z" />
<glyph unicode="B" horiz-adv-x="1820" d="M201 0v1479h870q93 0 169.5 -9.5t149 -35.5t121.5 -67.5t79 -108.5t30 -156q0 -134 -106.5 -220.5t-258.5 -95.5v-14q64 -5 120.5 -17.5t117.5 -40.5t104 -68t71 -104t28 -145q0 -53 -15 -104t-56.5 -105.5t-105.5 -95t-171 -66.5t-244 -26h-903zM532 229h459 q348 0 348 207q0 49 -20 87t-51.5 61t-75.5 37.5t-87 20t-91 5.5h-482v-418zM532 877h474q127 0 192.5 42.5t65.5 137.5q0 47 -17.5 81.5t-46 55.5t-71.5 33.5t-87 17t-100 4.5h-410v-372z" />
<glyph unicode="C" horiz-adv-x="1820" d="M125 739q0 370 221 574.5t608 204.5q100 0 196 -14t194.5 -51t172.5 -92.5t123 -146t54 -204.5h-344q-3 66 -39 118.5t-93 84t-123.5 47.5t-136.5 16q-66 0 -130.5 -15.5t-130.5 -55t-115.5 -99t-81 -154t-31.5 -213.5t31.5 -213.5t81 -153.5t115.5 -98.5t130.5 -55 t130.5 -15.5q97 0 175 24t126 64.5t75 86.5t34 95h344q-8 -114 -55.5 -203.5t-120 -146.5t-172.5 -94.5t-205 -52.5t-225 -15q-378 0 -593.5 199t-215.5 579z" />
<glyph unicode="D" horiz-adv-x="1820" d="M176 0v1479h703q208 0 366 -56.5t255.5 -159t146.5 -238.5t49 -302q0 -63 -10.5 -127t-36.5 -136.5t-66.5 -137t-105.5 -124.5t-147 -103t-197.5 -69t-251.5 -26h-705zM508 242h328q121 0 215 34.5t149.5 87.5t91 123.5t48 133.5t12.5 127q0 125 -39.5 220t-110.5 153 t-163.5 87t-204.5 29h-326v-995z" />
<glyph unicode="E" horiz-adv-x="1517" d="M176 0v1479h1172v-242h-840v-348h809v-242h-809v-405h876v-242h-1208z" />
<glyph unicode="F" horiz-adv-x="1366" d="M176 0v1479h1104v-242h-772v-360h729v-242h-729v-635h-332z" />
<glyph unicode="G" horiz-adv-x="1972" d="M125 743q0 167 59 308t169.5 245t282 163t384.5 59q227 0 400.5 -56t276.5 -174.5t103 -286.5h-344q-4 74 -41 131.5t-95 90t-122 49t-129 16.5q-96 0 -182 -19t-163 -61.5t-133.5 -104.5t-89 -154t-32.5 -204q0 -86 18.5 -162t63 -147t111.5 -121.5t172 -81t237 -30.5 q191 0 406 67v283h-473v229h796v-690q-148 -63 -359.5 -97t-389.5 -34q-167 0 -308 29.5t-256 91.5t-195 153.5t-123.5 220t-43.5 287.5z" />
<glyph unicode="H" horiz-adv-x="1820" d="M176 0v1479h332v-602h805v602h332v-1479h-332v635h-805v-635h-332z" />
<glyph unicode="I" horiz-adv-x="757" d="M213 0v1479h332v-1479h-332z" />
<glyph unicode="J" horiz-adv-x="1517" d="M33 485h332q1 -130 84 -206t213 -76q348 0 348 399v877h331v-893q0 -307 -166 -466t-491 -159q-138 0 -252 30t-204 91t-141 163.5t-54 239.5z" />
<glyph unicode="K" horiz-adv-x="1669" d="M190 0v1479h332v-645l625 645h407l-651 -666l729 -813h-438l-672 778v-778h-332z" />
<glyph unicode="L" horiz-adv-x="1366" d="M176 0v1479h332v-1237h813v-242h-1145z" />
<glyph unicode="M" horiz-adv-x="2578" d="M182 0v1479h553l559 -1205l549 1205h553v-1479h-332v1270h-4l-577 -1270h-406l-592 1270h-4v-1270h-299z" />
<glyph unicode="N" horiz-adv-x="1972" d="M182 0v1479h467l838 -1135h4v1135h299v-1479h-447l-858 1155h-4v-1155h-299z" />
<glyph unicode="O" horiz-adv-x="1974" d="M125 739q0 384 224 581.5t638 197.5t638 -197.5t224 -581.5t-224 -581t-638 -197t-638 197t-224 581zM469 739q0 -258 138 -397t380 -139q244 0 381 139t137 397t-137 397.5t-381 139.5q-242 0 -380 -139.5t-138 -397.5z" />
<glyph unicode="P" horiz-adv-x="1669" d="M201 0v1479h719q344 0 501.5 -118t157.5 -357q0 -41 -6 -79.5t-23.5 -84.5t-45 -85.5t-75 -77.5t-109 -65t-150.5 -43t-197 -16h-441v-553h-331zM532 795h388q315 0 315 211q0 58 -21.5 101t-55 67.5t-85 39t-100.5 19t-113 4.5h-328v-442z" />
<glyph unicode="Q" horiz-adv-x="1974" d="M125 739q0 384 224 581.5t638 197.5t638 -197.5t224 -581.5q0 -322 -159 -520q163 8 262 10v-229h-168q-452 0 -514 -10q-171 -29 -283 -29q-414 0 -638 197t-224 581zM469 739q0 -258 138 -397t380 -139q244 0 381 139t137 397t-137 397.5t-381 139.5 q-242 0 -380 -139.5t-138 -397.5z" />
<glyph unicode="R" horiz-adv-x="1820" d="M201 0v1479h886q101 0 185 -13t156.5 -43t122.5 -75.5t78 -113t28 -153.5q0 -94 -31.5 -165.5t-88 -116t-128.5 -69t-160 -30.5v-4q56 -2 101.5 -10t81 -19t63 -30.5t47 -39t34 -50.5t23.5 -58t15.5 -69t9.5 -77t6 -87q8 -164 45 -256h-356q-25 60 -33 233 q-6 114 -22.5 178.5t-63.5 105.5t-118.5 54t-198.5 13h-351v-584h-331zM532 813h431q78 0 137.5 10t109.5 33.5t76.5 68t26.5 109.5q0 52 -18.5 89.5t-48 59t-75.5 34t-90.5 16.5t-103.5 4h-445v-424z" />
<glyph unicode="S" horiz-adv-x="1669" d="M104 463h332q14 -136 116 -209.5t294 -73.5q189 0 282 67.5t93 158.5q0 78 -57.5 119t-182.5 59l-305 41q-520 70 -520 413q0 100 36 181t98 136t147 92t180.5 54t201.5 17q320 0 494 -127.5t182 -354.5h-332q-9 140 -102.5 201t-272.5 61q-72 0 -136 -21.5t-108 -69 t-44 -111.5q0 -82 55 -124.5t160 -56.5l424 -59q101 -14 179 -47t123.5 -74t74.5 -93t39 -98.5t10 -97.5q0 -231 -195.5 -358t-568.5 -127q-323 0 -510 133t-187 369z" />
<glyph unicode="T" d="M29 1237v242h1458v-242h-563v-1237h-332v1237h-563z" />
<glyph unicode="U" horiz-adv-x="1820" d="M168 530v949h332v-904q0 -183 109.5 -284t301.5 -101t301 98t109 296v895h332v-889q0 -109 -19.5 -196t-72.5 -170.5t-140 -139t-229 -89.5t-332 -34q-137 0 -259.5 35.5t-220 103.5t-155 179t-57.5 251z" />
<glyph unicode="V" horiz-adv-x="1820" d="M23 1479h380l527 -1168l524 1168h344l-696 -1479h-381z" />
<glyph unicode="W" horiz-adv-x="2729" d="M29 1479h356l391 -1155h4l385 1155h418l399 -1155h5l383 1155h331l-524 -1479h-408l-411 1180h-4l-398 -1180h-399z" />
<glyph unicode="X" horiz-adv-x="1820" d="M23 0l669 768l-620 711h450l410 -510l418 510h393l-617 -711l672 -768h-450l-455 551l-453 -551h-417z" />
<glyph unicode="Y" horiz-adv-x="1820" d="M29 1479h434l467 -633l469 633h393l-713 -916v-563h-331v563z" />
<glyph unicode="Z" horiz-adv-x="1517" d="M55 0v313l971 924h-905v242h1294v-318l-971 -919h1018v-242h-1407z" />
<glyph unicode="[" horiz-adv-x="757" d="M172 -281v1799h541v-185h-254v-1429h254v-185h-541z" />
<glyph unicode="\" horiz-adv-x="909" d="M20 1518h250l619 -1557h-250z" />
<glyph unicode="]" horiz-adv-x="757" d="M45 -96h254v1429h-254v185h541v-1799h-541v185z" />
<glyph unicode="^" horiz-adv-x="1228" d="M143 649l369 768h205l368 -768h-229l-242 539l-241 -539h-230z" />
<glyph unicode="_" horiz-adv-x="1024" d="M0 -154h1024v-102h-1024v102z" />
<glyph unicode="`" horiz-adv-x="606" d="M-104 1487h350l237 -287h-233z" />
<glyph unicode="a" horiz-adv-x="1517" d="M88 276q0 79 24 139.5t71 101.5t106.5 68t143 42t166.5 20.5t189 5.5h248q0 66 -22 112.5t-62.5 71.5t-89 35.5t-110.5 10.5q-110 0 -175.5 -40.5t-74.5 -103.5h-324q9 76 47.5 135t93.5 95t130.5 58.5t150.5 31t160 8.5q93 0 172.5 -11t158.5 -41t134 -78.5t89 -128 t34 -183.5v-430q0 -102 8 -195h-287q-8 63 -8 141q-180 -180 -488 -180q-129 0 -226.5 28t-152 75t-80.5 100.5t-26 111.5zM412 297q0 -63 57 -113.5t178 -50.5q49 0 99.5 11t102.5 37t92.5 63.5t67 95.5t27.5 129h-256q-182 0 -275 -41t-93 -131z" />
<glyph unicode="b" horiz-adv-x="1517" d="M131 0q8 114 8 242v1237h312v-592h4q132 180 419 180q46 0 94 -6.5t104 -24t105.5 -44.5t96.5 -71.5t81 -101t54.5 -137.5t20.5 -176q0 -111 -36 -208t-104.5 -173t-178.5 -120t-249 -44q-135 0 -246.5 43t-173.5 137h-4q0 -47 -8 -141h-299zM451 514q0 -150 91 -253 t236 -103t236.5 103t91.5 253t-91.5 253t-236.5 103t-236 -103t-91 -253z" />
<glyph unicode="c" horiz-adv-x="1366" d="M88 514q0 265 166 409t446 144q119 0 215.5 -20.5t162.5 -56t111.5 -86.5t68 -109.5t26.5 -126.5h-323q-7 101 -74.5 158t-173.5 57q-131 0 -216 -95t-85 -278q0 -78 16 -141.5t50 -115t92.5 -80t138.5 -28.5q112 0 180 53.5t80 159.5h323q-1 -98 -49 -175.5t-129 -125 t-183.5 -72t-219.5 -24.5q-295 0 -459 144.5t-164 408.5z" />
<glyph unicode="d" horiz-adv-x="1517" d="M88 506q0 95 20.5 176t54 137.5t80.5 101t97 71.5t105.5 44.5t103.5 24t94 6.5q288 0 420 -180h4v592h311v-1237q0 -128 8 -242h-299q-8 94 -8 141h-4q-62 -94 -173.5 -137t-246.5 -43q-139 0 -249 44t-178.5 120t-104 173t-35.5 208zM412 514q0 -150 91 -253t236 -103 t236.5 103t91.5 253t-91.5 253t-236.5 103t-236 -103t-91 -253z" />
<glyph unicode="e" horiz-adv-x="1517" d="M109 514q0 90 19 167t66.5 149.5t122 123.5t192 82t269.5 31q94 0 180 -16.5t170 -57.5t145 -103t98.5 -160t37.5 -222v-64h-977q0 -78 30 -137t81.5 -93.5t112.5 -51.5t130 -17q51 0 102 11.5t98.5 42.5t62.5 77h331q-7 -62 -40 -112t-83.5 -83.5t-109.5 -58t-126.5 -37 t-126.5 -18.5t-116 -6q-152 0 -269.5 31t-192 82t-122 123.5t-66.5 149.5t-19 167zM432 629h653q-13 132 -101 193t-226 61q-126 0 -219.5 -65t-106.5 -189z" />
<glyph unicode="f" horiz-adv-x="1062" d="M51 831v197h266v88q0 201 107 288t334 87q155 0 266 -12v-193q-3 0 -57.5 4t-83.5 4q-103 0 -158.5 -25t-75.5 -73.5t-20 -136.5v-31h319v-197h-319v-831h-312v831h-266z" />
<glyph unicode="g" horiz-adv-x="1517" d="M88 532q0 244 156.5 389.5t404.5 145.5q271 0 430 -180l13 141h294q-8 -114 -8 -254v-715q0 -244 -168.5 -356.5t-490.5 -112.5q-562 0 -578 338h312q1 -73 74 -113t186 -40q172 0 263 71t91 209v140h-4q-65 -88 -181 -134.5t-229 -46.5q-132 0 -240.5 42.5t-178.5 114 t-108 164.5t-38 197zM420 541q0 -146 85.5 -238t237.5 -92t238 92t86 238q0 145 -85.5 237t-238.5 92q-152 0 -237.5 -91.5t-85.5 -237.5z" />
<glyph unicode="h" d="M154 0v1479h311v-621h4q133 209 422 209q59 0 120 -12.5t125 -44.5t113.5 -79.5t81 -124.5t31.5 -173v-633h-311v545q0 92 -20 155.5t-58 97t-83.5 47t-105.5 13.5q-62 0 -118 -22t-101.5 -64.5t-72.5 -114t-27 -161.5v-496h-311z" />
<glyph unicode="i" horiz-adv-x="606" d="M131 1229v250h344v-250h-344zM147 0v1028h312v-1028h-312z" />
<glyph unicode="j" horiz-adv-x="606" d="M-88 -176q66 -8 90 -8q102 0 141 42t39 154v1016h312v-1079q0 -60 -11.5 -109t-40.5 -93.5t-75 -74.5t-119.5 -47.5t-169.5 -17.5q-66 0 -166 14v203zM166 1229v250h344v-250h-344z" />
<glyph unicode="k" horiz-adv-x="1517" d="M174 0v1479h311v-873l480 422h409l-502 -444l617 -584h-428l-576 573v-573h-311z" />
<glyph unicode="l" horiz-adv-x="606" d="M147 0v1479h312v-1479h-312z" />
<glyph unicode="m" horiz-adv-x="2424" d="M152 1028h299q8 -110 8 -164q95 107 195.5 155t232.5 48q148 0 261.5 -58.5t176.5 -168.5q149 227 453 227q65 0 126 -11t129 -42.5t117.5 -81t82 -135t32.5 -195.5v-602h-311v545q0 92 -20 155.5t-57.5 97t-83 47t-105.5 13.5q-62 0 -118.5 -22t-102 -64.5t-72.5 -114 t-27 -161.5v-496h-311v545q0 92 -20 155.5t-57.5 97t-83 47t-105.5 13.5q-62 0 -118.5 -22t-102 -64.5t-72.5 -114t-27 -161.5v-496h-311v776q0 100 -8 252z" />
<glyph unicode="n" d="M145 1028h299q9 -128 9 -170h4q150 209 434 209q59 0 120 -12.5t125 -44.5t113.5 -79.5t81 -124.5t31.5 -173v-633h-311v545q0 92 -20 155.5t-58 97t-83.5 47t-105.5 13.5q-62 0 -118 -22t-101.5 -64.5t-72.5 -114t-27 -161.5v-496h-311v784q0 96 -9 244z" />
<glyph unicode="o" d="M88 514q0 89 19 166.5t67 150t122 123.5t192 82t270 31t269.5 -31t192 -82t122 -123.5t66.5 -149.5t19 -167t-19 -167t-66.5 -149.5t-122 -123.5t-192 -82t-269.5 -31t-270 31t-192 82t-122 123.5t-67 150t-19 166.5zM412 514q0 -159 88 -257.5t258 -98.5t258 98.5 t88 257.5t-88 257.5t-258 98.5t-258 -98.5t-88 -257.5z" />
<glyph unicode="p" horiz-adv-x="1517" d="M131 1028h299q8 -94 8 -141h4q62 94 173.5 137t246.5 43q139 0 249 -44t178.5 -120t104.5 -173t36 -208q0 -95 -20.5 -176t-54.5 -137.5t-81 -101t-96.5 -71.5t-105.5 -44.5t-104 -24t-94 -6.5q-287 0 -419 180h-4v-534h-312v1179q0 128 -8 242zM451 514q0 -150 91 -253 t236 -103t236.5 103t91.5 253t-91.5 253t-236.5 103t-236 -103t-91 -253z" />
<glyph unicode="q" horiz-adv-x="1517" d="M88 522q0 111 35.5 208t104 173t178.5 120t249 44q135 0 246.5 -43t173.5 -137h4q0 47 8 141h299q-8 -114 -8 -242v-1179h-311v534h-4q-132 -180 -420 -180q-46 0 -94 6.5t-103.5 24t-105.5 44.5t-97 71.5t-80.5 101t-54 137.5t-20.5 176zM412 514q0 -150 91 -253 t236 -103t236.5 103t91.5 253t-91.5 253t-236.5 103t-236 -103t-91 -253z" />
<glyph unicode="r" horiz-adv-x="1062" d="M166 1028h299q8 -126 8 -188h4q13 29 24.5 49.5t39.5 53.5t61.5 53.5t90 36.5t124.5 16q90 0 201 -21v-233q-19 4 -66 8q-46 4 -80 4q-195 0 -291 -92t-96 -299v-416h-311v770q0 118 -8 258z" />
<glyph unicode="s" horiz-adv-x="1366" d="M102 315h332q17 -96 73.5 -133t176.5 -37q130 0 193 33.5t63 93.5q0 41 -34 66t-115 35l-242 33q-86 11 -153 31.5t-110 47t-72.5 55t-44 63t-20.5 63.5t-6 63q0 49 16 94t56.5 90.5t102 78.5t161.5 54t226 21q79 0 150 -9.5t141.5 -34t122 -62.5t83 -99t31.5 -139h-324 q-7 87 -68 123.5t-184 36.5q-88 0 -139 -30t-51 -81q0 -30 11.5 -48.5t51 -35.5t115.5 -29l301 -47q163 -25 240.5 -105t77.5 -200q0 -73 -28.5 -132.5t-90 -109t-171 -77t-259.5 -27.5q-129 0 -220.5 10t-165 33t-119.5 64t-73 101.5t-35 145.5z" />
<glyph unicode="t" horiz-adv-x="1062" d="M31 831v197h286v219l312 94v-313h366v-197h-366v-479q0 -87 39.5 -130.5t126.5 -43.5q124 0 192 19v-197q-151 -18 -264 -18q-229 0 -317.5 78t-88.5 264v507h-286z" />
<glyph unicode="u" d="M154 395v633h311v-545q0 -92 20 -155.5t57.5 -97t83 -47t105.5 -13.5q62 0 118.5 22t102 64.5t72.5 114t27 161.5v496h311v-784q0 -48 4 -131t4 -113h-299q-8 114 -8 170h-4q-150 -209 -434 -209q-59 0 -120 12.5t-125 44.5t-113.5 79.5t-81 124.5t-31.5 173z" />
<glyph unicode="v" horiz-adv-x="1517" d="M23 1028h362l389 -799l389 799h332l-541 -1028h-389z" />
<glyph unicode="w" horiz-adv-x="2426" d="M23 1028h350l327 -766l334 766h379l342 -766l326 766h323l-483 -1028h-362l-347 786l-346 -786h-362z" />
<glyph unicode="x" horiz-adv-x="1517" d="M23 0l524 541l-471 487h413l281 -326l272 326h392l-465 -487l526 -541h-451l-296 344l-312 -344h-413z" />
<glyph unicode="y" horiz-adv-x="1517" d="M23 1028h368l381 -743l385 743h338l-772 -1421h-356l223 397z" />
<glyph unicode="z" horiz-adv-x="1366" d="M104 0v256l709 571v4h-670v197h1071v-256l-710 -559v-4h758v-209h-1158z" />
<glyph unicode="{" horiz-adv-x="757" d="M66 532v173q24 0 52.5 6.5t60.5 20.5t53.5 43t21.5 69v411q0 64 28 116.5t70 83t85.5 47t78.5 16.5h197h57v-172h-115q-37 0 -61.5 -12.5t-35 -35t-14 -42.5t-3.5 -46v-389q-1 -44 -17 -79t-39.5 -56t-54 -35.5t-54.5 -20.5t-48 -9v-5q24 -3 48 -9t54.5 -20.5t54 -35.5 t39.5 -56t17 -79v-389q0 -26 3.5 -46t14 -42.5t35 -35t61.5 -12.5h115v-172h-254q-35 0 -78.5 16.5t-85.5 47t-70 83t-28 116.5v411q0 40 -21.5 69t-53.5 43t-60.5 20.5t-52.5 6.5z" />
<glyph unicode="|" horiz-adv-x="454" d="M113 -39v1557h229v-1557h-229z" />
<glyph unicode="}" horiz-adv-x="757" d="M-12 -109h114q115 0 115 136v389q1 44 17 79t39.5 56t54 35.5t54.5 20.5t48 9v5q-24 3 -48 9t-54.5 20.5t-54 35.5t-39.5 56t-17 79v389q0 136 -115 136h-114v172h254q35 0 78.5 -16.5t85.5 -47t70 -83t28 -116.5v-411q0 -40 21.5 -69t53.5 -43t60.5 -20.5t52.5 -6.5 v-173q-24 0 -52.5 -6.5t-60.5 -20.5t-53.5 -43t-21.5 -69v-411q0 -64 -28 -116.5t-70 -83t-85.5 -47t-78.5 -16.5h-254v172z" />
<glyph unicode="~" horiz-adv-x="1228" d="M143 522q64 99 125 139.5t129 40.5q59 0 122 -21.5t108.5 -48t104.5 -48t110 -21.5q106 0 172 146l71 -195q-64 -99 -125 -139.5t-129 -40.5q-59 0 -122 21.5t-108.5 48t-104 48t-109.5 21.5q-107 0 -172 -145z" />
<glyph unicode="&#xa1;" horiz-adv-x="1064" d="M377 -371l41 1069h229l41 -1069h-311zM389 821v287h287v-287h-287z" />
<glyph unicode="&#xa2;" d="M156 514q0 175 79.5 302t214 189t308.5 62q68 0 121 -6l82 237h106l-88 -254q183 -36 274 -135.5t99 -240.5h-324q-9 131 -115 184l-237 -692q44 -15 100 -15q112 0 180 53.5t80 159.5h324q-1 -97 -48.5 -175t-124.5 -125.5t-170 -72t-192 -24.5q-118 0 -211 19l-75 -218 h-107l84 238q-99 32 -171 86t-112 123.5t-58.5 144t-18.5 160.5zM479 510q0 -208 107 -301l231 670q-10 4 -37 4q-131 0 -216 -95t-85 -278z" />
<glyph unicode="&#xa3;" d="M111 0v229h192v420h-192v219h192v152q0 239 151 368.5t402 129.5q126 0 226 -22t165.5 -59t108.5 -90t61.5 -111.5t18.5 -125.5v-27h-344q0 112 -56 163.5t-172 51.5q-104 0 -166.5 -60t-62.5 -187v-183h418v-219h-418v-420h760v-229h-1284z" />
<glyph unicode="&#xa4;" d="M223 299l123 121q-92 129 -92 289q0 155 90 288l-121 121l121 121l123 -121q131 94 291 94q161 0 293 -94l120 121l121 -121l-123 -121q93 -132 93 -288q0 -158 -93 -289l123 -121l-121 -121l-120 121q-131 -94 -293 -94q-160 0 -291 94l-123 -121zM483 709 q0 -114 80.5 -194.5t194.5 -80.5t194 80.5t80 194.5t-80 194t-194 80t-194.5 -80t-80.5 -194z" />
<glyph unicode="&#xa5;" d="M61 1479h324l389 -633l393 633h287l-434 -648h254v-184h-377v-149h377v-185h-377v-313h-274v313h-377v185h377v149h-377v184h254z" />
<glyph unicode="&#xa6;" horiz-adv-x="454" d="M113 -39v582h229v-582h-229zM113 936v582h229v-582h-229z" />
<glyph unicode="&#xa7;" horiz-adv-x="1368" d="M125 698q0 92 71.5 160.5t213.5 120.5q-112 49 -162.5 104t-50.5 127q0 150 129 229t354 79q101 0 228 -21t233 -57v-242q-93 53 -202.5 82t-203.5 29q-215 0 -215 -99q0 -50 63.5 -78t288.5 -92q195 -55 283 -127.5t88 -173.5q0 -176 -291 -252v-4q112 -29 184 -93.5 t72 -164.5t-64.5 -173t-174 -109.5t-248.5 -36.5q-251 0 -528 94v242q106 -60 234.5 -93.5t240.5 -33.5q217 0 217 100q0 32 -16 53t-63.5 42t-141.5 48l-123 35q-217 62 -316.5 136t-99.5 169zM449 741q0 -80 149 -125l139 -41q79 23 131 62.5t52 75.5q0 43 -40.5 72 t-138.5 61l-141 45q-76 -36 -113.5 -76t-37.5 -74z" />
<glyph unicode="&#xa8;" horiz-adv-x="606" d="M-100 1237v242h250v-242h-250zM457 1237v242h250v-242h-250z" />
<glyph unicode="&#xa9;" horiz-adv-x="1638" d="M41 739q0 127 39 246t111 214.5t168 167.5t214.5 111.5t245.5 39.5t245.5 -39.5t214.5 -111.5t168 -167.5t111 -214.5t39 -246q0 -158 -61.5 -302.5t-165.5 -248.5t-248.5 -165.5t-302.5 -61.5t-302.5 61.5t-248.5 165.5t-165.5 248.5t-61.5 302.5zM258 739 q0 -243 162 -406t399 -163t399 163t162 406t-162 406.5t-399 163.5t-399 -163.5t-162 -406.5zM446 739q0 188 108.5 310t283.5 122q135 0 230 -80.5t118 -230.5h-172q-11 69 -60 104t-116 35q-98 0 -152.5 -68.5t-54.5 -191.5q0 -113 59 -186.5t152 -73.5q72 0 119 38 t53 110h180q-22 -151 -121 -235.5t-231 -84.5q-172 0 -284 124t-112 308z" />
<glyph unicode="&#xaa;" horiz-adv-x="985" d="M35 993q0 57 23.5 97.5t63 65.5t103 39t129.5 19t156 5h180q0 114 -184 114q-71 0 -114.5 -23.5t-49.5 -56.5h-236q22 203 404 203q69 0 125.5 -6.5t111 -24.5t91.5 -47t59.5 -77t22.5 -111v-285q0 -60 12 -92h-230v86q-59 -56 -139 -81t-192 -25q-176 0 -256 57.5 t-80 142.5zM285 1004q0 -34 36.5 -61.5t114.5 -27.5q40 0 82 10t81.5 30t64.5 57t26 84h-166q-239 0 -239 -92z" />
<glyph unicode="&#xab;" horiz-adv-x="1214" d="M68 547l270 397h274l-233 -397l233 -397h-274zM563 547l271 397h274l-234 -397l234 -397h-274z" />
<glyph unicode="&#xac;" horiz-adv-x="1228" d="M96 629v229h1037v-637h-230v408h-807z" />
<glyph unicode="&#xad;" horiz-adv-x="757" d="M94 432v230h570v-230h-570z" />
<glyph unicode="&#xae;" horiz-adv-x="1638" d="M41 739q0 127 39 246t111 214.5t168 167.5t214.5 111.5t245.5 39.5t245.5 -39.5t214.5 -111.5t168 -167.5t111 -214.5t39 -246q0 -158 -61.5 -302.5t-165.5 -248.5t-248.5 -165.5t-302.5 -61.5t-302.5 61.5t-248.5 165.5t-165.5 248.5t-61.5 302.5zM258 739 q0 -243 162 -406t399 -163t399 163t162 406t-162 406.5t-399 163.5t-399 -163.5t-162 -406.5zM516 340v813h297q167 0 250.5 -56t83.5 -190q0 -54 -18.5 -95.5t-49 -65t-64.5 -35.5t-69 -13l209 -358h-192l-187 342h-88v-342h-172zM688 817h143q66 0 99 22.5t33 86.5 q0 30 -15 50t-42.5 28.5t-50.5 11t-54 2.5h-113v-201z" />
<glyph unicode="&#xaf;" horiz-adv-x="606" d="M-129 1276v172h864v-172h-864z" />
<glyph unicode="&#xb0;" horiz-adv-x="819" d="M117 1163q0 121 85.5 207t207.5 86q121 0 206.5 -85.5t85.5 -207.5t-85.5 -207.5t-206.5 -85.5q-122 0 -207.5 86t-85.5 207zM264 1163q0 -60 43 -102.5t103 -42.5t102.5 42.5t42.5 102.5t-42.5 103t-102.5 43t-103 -43t-43 -103z" />
<glyph unicode="&#xb1;" horiz-adv-x="1228" d="M96 0v229h1037v-229h-1037zM96 551v229h404v256h229v-256h404v-229h-404v-258h-229v258h-404z" />
<glyph unicode="&#xb2;" horiz-adv-x="985" d="M57 584v159l185 99q243 130 334.5 201.5t91.5 140.5q0 53 -48 82.5t-118 29.5q-84 0 -131 -35.5t-47 -97.5v-10h-263q0 156 106.5 229.5t358.5 73.5q89 0 160.5 -15.5t116 -39.5t74 -56t41.5 -63.5t12 -62.5q0 -46 -15.5 -89t-54.5 -94t-115.5 -106.5t-187.5 -110.5 l-143 -71v-5h522v-159h-879z" />
<glyph unicode="&#xb3;" horiz-adv-x="985" d="M25 850h262q10 -141 211 -141q101 0 150.5 36.5t49.5 83.5q0 61 -60.5 86t-184.5 25h-54v160h52q225 0 225 100q0 49 -50 79t-122 30q-76 0 -126.5 -28.5t-53.5 -88.5h-263q0 264 439 264q99 0 176.5 -14t126 -36t79.5 -53t43.5 -63t12.5 -67q0 -153 -221 -195v-4 q99 -5 171.5 -58.5t72.5 -142.5q0 -124 -121 -193t-355 -69q-117 0 -202.5 17.5t-133 44t-76 67.5t-37 76.5t-11.5 83.5z" />
<glyph unicode="&#xb4;" horiz-adv-x="606" d="M123 1200l237 287h351l-355 -287h-233z" />
<glyph unicode="&#xb5;" d="M154 -393v1421h311v-545q0 -92 20 -155.5t57.5 -97t83 -47t105.5 -13.5q62 0 118.5 22t102 64.5t72.5 114t27 161.5v496h311v-784q0 -48 4 -131t4 -113h-299q-8 114 -8 170h-4q-74 -104 -180.5 -156.5t-214.5 -52.5q-126 0 -199 78v-432h-311z" />
<glyph unicode="&#xb6;" horiz-adv-x="1269" d="M-16 1169q0 89 37 151t107 96t156 48.5t199 14.5h621v-1534h-230v1374h-206v-1374h-230v925q-216 0 -335 80t-119 219z" />
<glyph unicode="&#xb7;" horiz-adv-x="757" d="M188 565q0 78 56.5 134.5t134.5 56.5t134 -56.5t56 -134.5t-56 -134t-134 -56t-134.5 56t-56.5 134z" />
<glyph unicode="&#xb8;" horiz-adv-x="606" d="M2 -371l47 99q95 -31 174 -31q121 0 121 53q0 62 -98 62q-41 0 -90 -19l-41 64l155 155h131l-133 -125h4q38 7 109 7q74 0 127 -38.5t53 -101.5q0 -74 -75.5 -119t-192.5 -45q-131 0 -291 39z" />
<glyph unicode="&#xb9;" horiz-adv-x="985" d="M184 1120v185q172 49 275 129h235v-850h-241v659q-78 -67 -269 -123z" />
<glyph unicode="&#xba;" horiz-adv-x="985" d="M35 1124q0 68 21.5 123.5t71 104.5t143 76.5t223.5 27.5q105 0 185.5 -18.5t131 -49.5t82.5 -75t44.5 -90t12.5 -99q0 -68 -21.5 -124t-70.5 -104.5t-141.5 -75.5t-222.5 -27q-105 0 -186.5 18.5t-132 49t-83 74t-45 89.5t-12.5 100zM285 1124q0 -88 53 -142t156 -54 q102 0 154 54t52 142q0 87 -52.5 142t-153.5 55q-103 0 -156 -55t-53 -142z" />
<glyph unicode="&#xbb;" horiz-adv-x="1214" d="M106 150l234 397l-234 397h275l270 -397l-270 -397h-275zM602 150l234 397l-234 397h275l270 -397l-270 -397h-275z" />
<glyph unicode="&#xbc;" horiz-adv-x="2275" d="M123 1120v185q170 48 274 129h236v-850h-242v659q-79 -68 -268 -123zM377 -115l1126 1647h230l-1127 -1647h-229zM1247 168v209l498 473h307v-522h162v-160h-162v-168h-242v168h-563zM1442 328h368v338z" />
<glyph unicode="&#xbd;" horiz-adv-x="2275" d="M123 1120v185q170 48 274 129h236v-850h-242v659q-79 -68 -268 -123zM350 -115l1127 1647h229l-1126 -1647h-230zM1286 0v160l184 98q243 130 334.5 201.5t91.5 140.5q0 53 -47.5 83t-117.5 30q-84 0 -131.5 -35.5t-47.5 -97.5v-11h-262q0 156 106.5 229.5t358.5 73.5 q89 0 160.5 -15.5t116 -39.5t74 -56t41.5 -63.5t12 -62.5q0 -46 -15.5 -88.5t-54.5 -93.5t-115.5 -106.5t-187.5 -110.5l-144 -72v-4h523v-160h-879z" />
<glyph unicode="&#xbe;" horiz-adv-x="2275" d="M25 850h262q10 -141 211 -141q101 0 150.5 36.5t49.5 83.5q0 61 -60.5 86t-184.5 25h-54v160h52q225 0 225 100q0 49 -50 79t-122 30q-76 0 -126.5 -28.5t-53.5 -88.5h-263q0 264 439 264q99 0 176.5 -14t126 -36t79.5 -53t43.5 -63t12.5 -67q0 -153 -221 -195v-4 q99 -5 171.5 -58.5t72.5 -142.5q0 -124 -121 -193t-355 -69q-117 0 -202.5 17.5t-133 44t-76 67.5t-37 76.5t-11.5 83.5zM502 -115l1126 1647h230l-1127 -1647h-229zM1309 168v209l497 473h308v-522h161v-160h-161v-168h-242v168h-563zM1503 328h369v338z" />
<glyph unicode="&#xbf;" horiz-adv-x="1366" d="M113 -16q0 97 54 181t187 159l183 100q69 37 95.5 83.5t26.5 121.5v61h250v-121q0 -104 -27.5 -160t-99.5 -102l-239 -153q-53 -33 -76 -69t-23 -83q0 -182 314 -182q214 0 350 39v-230q-187 -39 -365 -39q-112 0 -200.5 10t-171.5 36.5t-138 69.5t-87.5 113.5 t-32.5 164.5zM641 821v287h287v-287h-287z" />
<glyph unicode="&#xc0;" horiz-adv-x="1972" d="M23 0l753 1479h418l756 -1479h-394l-170 332h-851l-156 -332h-356zM567 1862h351l237 -287h-233zM653 573h615l-307 644z" />
<glyph unicode="&#xc1;" horiz-adv-x="1972" d="M23 0l753 1479h418l756 -1479h-394l-170 332h-851l-156 -332h-356zM653 573h615l-307 644zM795 1575l237 287h350l-354 -287h-233z" />
<glyph unicode="&#xc2;" horiz-adv-x="1972" d="M23 0l753 1479h418l756 -1479h-394l-170 332h-851l-156 -332h-356zM565 1575l238 287h344l237 -287h-225l-184 164l-184 -164h-226zM653 573h615l-307 644z" />
<glyph unicode="&#xc3;" horiz-adv-x="1972" d="M23 0l753 1479h418l756 -1479h-394l-170 332h-851l-156 -332h-356zM522 1591q11 121 82.5 191.5t190.5 70.5q38 0 133 -28l110 -31q89 -25 129 -25q90 0 115 84h145q-30 -136 -97.5 -199t-174.5 -63q-59 0 -143 23l-109 31q-91 24 -127 24q-44 0 -68.5 -17t-43.5 -61 h-142zM653 573h615l-307 644z" />
<glyph unicode="&#xc4;" horiz-adv-x="1972" d="M23 0l753 1479h418l756 -1479h-394l-170 332h-851l-156 -332h-356zM571 1612v241h250v-241h-250zM653 573h615l-307 644zM1128 1612v241h250v-241h-250z" />
<glyph unicode="&#xc5;" horiz-adv-x="1972" d="M23 0l753 1479h418l756 -1479h-394l-170 332h-851l-156 -332h-356zM653 573h615l-307 644zM719 1704q0 96 70 141t186 45t186 -45t70 -141t-70 -141t-186 -45t-186 45t-70 141zM842 1704q0 -49 33 -70.5t100 -21.5q133 0 133 92t-133 92q-67 0 -100 -21.5t-33 -70.5z" />
<glyph unicode="&#xc6;" horiz-adv-x="2578" d="M12 0l1004 1479h1384v-242h-829l80 -348h704v-242h-655l94 -405h651v-242h-932l-77 332h-826l-217 -332h-381zM772 573h617l-152 697z" />
<glyph unicode="&#xc7;" horiz-adv-x="1820" d="M125 739q0 370 221 574.5t608 204.5q100 0 196 -14t194.5 -51t172.5 -92.5t123 -146t54 -204.5h-344q-3 66 -39 118.5t-93 84t-123.5 47.5t-136.5 16q-66 0 -130.5 -15.5t-130.5 -55t-115.5 -99t-81 -154t-31.5 -213.5t31.5 -213.5t81 -153.5t115.5 -98.5t130.5 -55 t130.5 -15.5q97 0 175 24t126 64.5t75 86.5t34 95h344q-7 -107 -49.5 -193t-108 -142.5t-155.5 -95t-186.5 -57t-206.5 -22.5l-82 -76h4q39 7 108 7q74 0 127.5 -38.5t53.5 -101.5q0 -74 -76 -119t-193 -45q-131 0 -291 39l48 99q95 -31 174 -31q120 0 120 53q0 62 -98 62 q-41 0 -90 -19l-41 64l107 104q-352 15 -552 213.5t-200 564.5z" />
<glyph unicode="&#xc8;" horiz-adv-x="1517" d="M176 0v1479h1172v-242h-840v-348h809v-242h-809v-405h876v-242h-1208zM365 1862h350l237 -287h-233z" />
<glyph unicode="&#xc9;" horiz-adv-x="1517" d="M176 0v1479h1172v-242h-840v-348h809v-242h-809v-405h876v-242h-1208zM592 1575l237 287h351l-355 -287h-233z" />
<glyph unicode="&#xca;" horiz-adv-x="1517" d="M176 0v1479h1172v-242h-840v-348h809v-242h-809v-405h876v-242h-1208zM362 1575l238 287h344l238 -287h-226l-184 164l-184 -164h-226z" />
<glyph unicode="&#xcb;" horiz-adv-x="1517" d="M176 0v1479h1172v-242h-840v-348h809v-242h-809v-405h876v-242h-1208zM369 1612v241h249v-241h-249zM926 1612v241h250v-241h-250z" />
<glyph unicode="&#xcc;" horiz-adv-x="757" d="M-29 1862h351l237 -287h-233zM213 0v1479h332v-1479h-332z" />
<glyph unicode="&#xcd;" horiz-adv-x="757" d="M199 1575l237 287h350l-354 -287h-233zM213 0v1479h332v-1479h-332z" />
<glyph unicode="&#xce;" horiz-adv-x="757" d="M-31 1575l238 287h344l237 -287h-225l-184 164l-184 -164h-226zM213 0v1479h332v-1479h-332z" />
<glyph unicode="&#xcf;" horiz-adv-x="757" d="M-25 1612v241h250v-241h-250zM213 0v1479h332v-1479h-332zM532 1612v241h250v-241h-250z" />
<glyph unicode="&#xd0;" horiz-adv-x="1820" d="M29 647v230h147v602h703q208 0 366 -56.5t255.5 -159t146.5 -238.5t49 -302q0 -63 -10.5 -127t-36.5 -136.5t-66.5 -137t-105.5 -124.5t-147 -103t-197.5 -69t-251.5 -26h-705v647h-147zM508 242h328q121 0 215 34.5t149.5 87.5t91 123.5t48 133.5t12.5 127 q0 125 -39.5 220t-110.5 153t-163.5 87t-204.5 29h-326v-360h397v-230h-397v-405z" />
<glyph unicode="&#xd1;" horiz-adv-x="1972" d="M182 0v1479h467l838 -1135h4v1135h299v-1479h-447l-858 1155h-4v-1155h-299zM535 1591q11 121 82 191.5t190 70.5q38 0 133 -28l111 -31q89 -25 129 -25q89 0 114 84h146q-30 -136 -97.5 -199t-175.5 -63q-59 0 -143 23l-109 31q-91 24 -127 24q-44 0 -68.5 -17 t-43.5 -61h-141z" />
<glyph unicode="&#xd2;" horiz-adv-x="1974" d="M125 739q0 384 224 581.5t638 197.5t638 -197.5t224 -581.5t-224 -581t-638 -197t-638 197t-224 581zM469 739q0 -258 138 -397t380 -139q244 0 381 139t137 397t-137 397.5t-381 139.5q-242 0 -380 -139.5t-138 -397.5zM580 1862h350l237 -287h-233z" />
<glyph unicode="&#xd3;" horiz-adv-x="1974" d="M125 739q0 384 224 581.5t638 197.5t638 -197.5t224 -581.5t-224 -581t-638 -197t-638 197t-224 581zM469 739q0 -258 138 -397t380 -139q244 0 381 139t137 397t-137 397.5t-381 139.5q-242 0 -380 -139.5t-138 -397.5zM807 1575l237 287h351l-355 -287h-233z" />
<glyph unicode="&#xd4;" horiz-adv-x="1974" d="M125 739q0 384 224 581.5t638 197.5t638 -197.5t224 -581.5t-224 -581t-638 -197t-638 197t-224 581zM469 739q0 -258 138 -397t380 -139q244 0 381 139t137 397t-137 397.5t-381 139.5q-242 0 -380 -139.5t-138 -397.5zM578 1575l237 287h344l238 -287h-226l-184 164 l-184 -164h-225z" />
<glyph unicode="&#xd5;" horiz-adv-x="1974" d="M125 739q0 384 224 581.5t638 197.5t638 -197.5t224 -581.5t-224 -581t-638 -197t-638 197t-224 581zM469 739q0 -258 138 -397t380 -139q244 0 381 139t137 397t-137 397.5t-381 139.5q-242 0 -380 -139.5t-138 -397.5zM535 1591q11 121 82 191.5t190 70.5q38 0 133 -28 l111 -31q89 -25 129 -25q89 0 114 84h146q-30 -136 -97.5 -199t-175.5 -63q-59 0 -143 23l-109 31q-91 24 -127 24q-44 0 -68.5 -17t-43.5 -61h-141z" />
<glyph unicode="&#xd6;" horiz-adv-x="1974" d="M125 739q0 384 224 581.5t638 197.5t638 -197.5t224 -581.5t-224 -581t-638 -197t-638 197t-224 581zM469 739q0 -258 138 -397t380 -139q244 0 381 139t137 397t-137 397.5t-381 139.5q-242 0 -380 -139.5t-138 -397.5zM584 1612v241h250v-241h-250zM1141 1612v241h250 v-241h-250z" />
<glyph unicode="&#xd7;" horiz-adv-x="1228" d="M133 195l324 323l-324 324l158 157l323 -323l324 323l158 -157l-326 -324l326 -323l-158 -158l-324 325l-323 -325z" />
<glyph unicode="&#xd8;" horiz-adv-x="1974" d="M125 739q0 384 224 581.5t638 197.5q296 0 496 -101l178 201l113 -100l-164 -187q239 -195 239 -592q0 -384 -224 -581t-638 -197q-301 0 -495 102l-179 -202l-112 100l164 186q-240 195 -240 592zM469 739q0 -224 104 -356l719 815q-128 78 -305 78q-242 0 -380 -139.5 t-138 -397.5zM684 281q122 -78 303 -78q244 0 381 139t137 397q0 222 -102 357z" />
<glyph unicode="&#xd9;" horiz-adv-x="1820" d="M168 530v949h332v-904q0 -183 109.5 -284t301.5 -101t301 98t109 296v895h332v-889q0 -109 -19.5 -196t-72.5 -170.5t-140 -139t-229 -89.5t-332 -34q-137 0 -259.5 35.5t-220 103.5t-155 179t-57.5 251zM504 1862h350l238 -287h-234z" />
<glyph unicode="&#xda;" horiz-adv-x="1820" d="M168 530v949h332v-904q0 -183 109.5 -284t301.5 -101t301 98t109 296v895h332v-889q0 -109 -19.5 -196t-72.5 -170.5t-140 -139t-229 -89.5t-332 -34q-137 0 -259.5 35.5t-220 103.5t-155 179t-57.5 251zM731 1575l238 287h350l-354 -287h-234z" />
<glyph unicode="&#xdb;" horiz-adv-x="1820" d="M168 530v949h332v-904q0 -183 109.5 -284t301.5 -101t301 98t109 296v895h332v-889q0 -109 -19.5 -196t-72.5 -170.5t-140 -139t-229 -89.5t-332 -34q-137 0 -259.5 35.5t-220 103.5t-155 179t-57.5 251zM502 1575l237 287h344l238 -287h-225l-185 164l-184 -164h-225z " />
<glyph unicode="&#xdc;" horiz-adv-x="1820" d="M168 530v949h332v-904q0 -183 109.5 -284t301.5 -101t301 98t109 296v895h332v-889q0 -109 -19.5 -196t-72.5 -170.5t-140 -139t-229 -89.5t-332 -34q-137 0 -259.5 35.5t-220 103.5t-155 179t-57.5 251zM508 1612v241h250v-241h-250zM1065 1612v241h250v-241h-250z" />
<glyph unicode="&#xdd;" horiz-adv-x="1820" d="M29 1479h434l467 -633l469 633h393l-713 -916v-563h-331v563zM731 1575l238 287h350l-354 -287h-234z" />
<glyph unicode="&#xde;" horiz-adv-x="1669" d="M201 0v1479h331v-250h388q344 0 501.5 -118t157.5 -357q0 -41 -6 -79.5t-23.5 -84.5t-45 -85.5t-75 -77.5t-109 -65t-150.5 -43t-197 -16h-441v-303h-331zM532 545h388q315 0 315 211q0 58 -21.5 101t-55 67.5t-85 39t-100.5 19t-113 4.5h-328v-442z" />
<glyph unicode="&#xdf;" horiz-adv-x="1669" d="M154 0v981q0 93 22 170.5t59.5 132.5t91 97t112 67.5t128.5 41.5t133.5 22t133.5 6q145 0 257.5 -25.5t176 -63.5t104.5 -89t54.5 -94.5t13.5 -86.5q0 -97 -54 -165.5t-178 -112.5q-74 -26 -109.5 -45t-43.5 -32t-8 -34q0 -22 25.5 -42t68.5 -32l200 -59 q256 -76 256 -293q0 -172 -131.5 -277.5t-386.5 -105.5q-466 0 -469 334h324q3 -70 47 -105q40 -32 125 -32q84 0 126 31.5t42 86.5q0 52 -29 82t-92 50l-166 49q-147 43 -209.5 116t-62.5 185q0 81 45 148.5t135 101.5l133 51q100 37 100 104q0 71 -78.5 114.5t-197.5 43.5 q-190 0 -288.5 -105t-98.5 -313v-903h-311z" />
<glyph unicode="&#xe0;" horiz-adv-x="1517" d="M88 276q0 79 24 139.5t71 101.5t106.5 68t143 42t166.5 20.5t189 5.5h248q0 66 -22 112.5t-62.5 71.5t-89 35.5t-110.5 10.5q-110 0 -175.5 -40.5t-74.5 -103.5h-324q9 76 47.5 135t93.5 95t130.5 58.5t150.5 31t160 8.5q93 0 172.5 -11t158.5 -41t134 -78.5t89 -128 t34 -183.5v-430q0 -102 8 -195h-287q-8 63 -8 141q-180 -180 -488 -180q-129 0 -226.5 28t-152 75t-80.5 100.5t-26 111.5zM352 1487h350l238 -287h-233zM412 297q0 -63 57 -113.5t178 -50.5q49 0 99.5 11t102.5 37t92.5 63.5t67 95.5t27.5 129h-256q-182 0 -275 -41 t-93 -131z" />
<glyph unicode="&#xe1;" horiz-adv-x="1517" d="M88 276q0 79 24 139.5t71 101.5t106.5 68t143 42t166.5 20.5t189 5.5h248q0 66 -22 112.5t-62.5 71.5t-89 35.5t-110.5 10.5q-110 0 -175.5 -40.5t-74.5 -103.5h-324q9 76 47.5 135t93.5 95t130.5 58.5t150.5 31t160 8.5q93 0 172.5 -11t158.5 -41t134 -78.5t89 -128 t34 -183.5v-430q0 -102 8 -195h-287q-8 63 -8 141q-180 -180 -488 -180q-129 0 -226.5 28t-152 75t-80.5 100.5t-26 111.5zM412 297q0 -63 57 -113.5t178 -50.5q49 0 99.5 11t102.5 37t92.5 63.5t67 95.5t27.5 129h-256q-182 0 -275 -41t-93 -131zM580 1200l237 287h350 l-354 -287h-233z" />
<glyph unicode="&#xe2;" horiz-adv-x="1517" d="M88 276q0 79 24 139.5t71 101.5t106.5 68t143 42t166.5 20.5t189 5.5h248q0 66 -22 112.5t-62.5 71.5t-89 35.5t-110.5 10.5q-110 0 -175.5 -40.5t-74.5 -103.5h-324q9 76 47.5 135t93.5 95t130.5 58.5t150.5 31t160 8.5q93 0 172.5 -11t158.5 -41t134 -78.5t89 -128 t34 -183.5v-430q0 -102 8 -195h-287q-8 63 -8 141q-180 -180 -488 -180q-129 0 -226.5 28t-152 75t-80.5 100.5t-26 111.5zM350 1200l238 287h344l237 -287h-225l-184 164l-185 -164h-225zM412 297q0 -63 57 -113.5t178 -50.5q49 0 99.5 11t102.5 37t92.5 63.5t67 95.5 t27.5 129h-256q-182 0 -275 -41t-93 -131z" />
<glyph unicode="&#xe3;" horiz-adv-x="1517" d="M88 276q0 79 24 139.5t71 101.5t106.5 68t143 42t166.5 20.5t189 5.5h248q0 66 -22 112.5t-62.5 71.5t-89 35.5t-110.5 10.5q-110 0 -175.5 -40.5t-74.5 -103.5h-324q9 76 47.5 135t93.5 95t130.5 58.5t150.5 31t160 8.5q93 0 172.5 -11t158.5 -41t134 -78.5t89 -128 t34 -183.5v-430q0 -102 8 -195h-287q-8 63 -8 141q-180 -180 -488 -180q-129 0 -226.5 28t-152 75t-80.5 100.5t-26 111.5zM307 1217q11 121 82.5 191.5t190.5 70.5q35 0 133 -29l110 -31q85 -24 129 -24q90 0 115 84h145q-30 -136 -97.5 -199t-174.5 -63q-63 0 -143 22 l-109 31q-91 24 -127 24q-45 0 -69 -16.5t-43 -60.5h-142zM412 297q0 -63 57 -113.5t178 -50.5q49 0 99.5 11t102.5 37t92.5 63.5t67 95.5t27.5 129h-256q-182 0 -275 -41t-93 -131z" />
<glyph unicode="&#xe4;" horiz-adv-x="1517" d="M88 276q0 79 24 139.5t71 101.5t106.5 68t143 42t166.5 20.5t189 5.5h248q0 66 -22 112.5t-62.5 71.5t-89 35.5t-110.5 10.5q-110 0 -175.5 -40.5t-74.5 -103.5h-324q9 76 47.5 135t93.5 95t130.5 58.5t150.5 31t160 8.5q93 0 172.5 -11t158.5 -41t134 -78.5t89 -128 t34 -183.5v-430q0 -102 8 -195h-287q-8 63 -8 141q-180 -180 -488 -180q-129 0 -226.5 28t-152 75t-80.5 100.5t-26 111.5zM356 1237v242h250v-242h-250zM412 297q0 -63 57 -113.5t178 -50.5q49 0 99.5 11t102.5 37t92.5 63.5t67 95.5t27.5 129h-256q-182 0 -275 -41 t-93 -131zM913 1237v242h250v-242h-250z" />
<glyph unicode="&#xe5;" horiz-adv-x="1517" d="M88 276q0 79 24 139.5t71 101.5t106.5 68t143 42t166.5 20.5t189 5.5h248q0 66 -22 112.5t-62.5 71.5t-89 35.5t-110.5 10.5q-110 0 -175.5 -40.5t-74.5 -103.5h-324q9 76 47.5 135t93.5 95t130.5 58.5t150.5 31t160 8.5q93 0 172.5 -11t158.5 -41t134 -78.5t89 -128 t34 -183.5v-430q0 -102 8 -195h-287q-8 63 -8 141q-180 -180 -488 -180q-129 0 -226.5 28t-152 75t-80.5 100.5t-26 111.5zM412 297q0 -63 57 -113.5t178 -50.5q49 0 99.5 11t102.5 37t92.5 63.5t67 95.5t27.5 129h-256q-182 0 -275 -41t-93 -131zM504 1350q0 96 70 141 t186 45t186 -45t70 -141t-70.5 -141.5t-185.5 -45.5t-185.5 45.5t-70.5 141.5zM627 1350q0 -49 33 -71t100 -22q133 0 133 93q0 92 -133 92q-67 0 -100 -21.5t-33 -70.5z" />
<glyph unicode="&#xe6;" horiz-adv-x="2426" d="M88 301q0 168 145.5 248t450.5 80h358q-21 254 -288 254q-97 0 -171.5 -41t-80.5 -107h-324q28 332 557 332q193 0 309 -40.5t173 -127.5q84 91 196.5 129.5t278.5 38.5q169 0 291 -39.5t194.5 -115.5t106.5 -177.5t34 -234.5v-56h-964q6 -145 96 -222t242 -77 q236 0 270 170h332q-42 -354 -590 -354q-218 0 -346 58t-195 176q-148 -234 -532 -234q-155 0 -275.5 36.5t-194 114.5t-73.5 189zM412 295q0 -66 63 -108t176 -42q159 0 270 77t121 222h-352q-121 0 -199.5 -42t-78.5 -107zM1354 629h641q-11 128 -99.5 191t-220.5 63 q-42 0 -83 -8t-81.5 -27.5t-72.5 -48t-54.5 -72.5t-29.5 -98z" />
<glyph unicode="&#xe7;" horiz-adv-x="1366" d="M88 514q0 265 166 409t446 144q119 0 215.5 -20.5t162.5 -56t111.5 -86.5t68 -109.5t26.5 -126.5h-323q-7 101 -74.5 158t-173.5 57q-131 0 -216 -95t-85 -278q0 -78 16 -141.5t50 -115t92.5 -80t138.5 -28.5q112 0 180 53.5t80 159.5h323q-1 -94 -44.5 -168.5 t-118 -122.5t-169.5 -74.5t-206 -31.5l-80 -74h4q38 7 108 7q74 0 127.5 -38.5t53.5 -101.5q0 -74 -76 -119t-193 -45q-130 0 -290 39l47 99q95 -31 174 -31q121 0 121 53q0 62 -99 62q-41 0 -90 -19l-41 64l109 108q-258 20 -399.5 162t-141.5 387z" />
<glyph unicode="&#xe8;" horiz-adv-x="1517" d="M109 514q0 90 19 167t66.5 149.5t122 123.5t192 82t269.5 31q94 0 180 -16.5t170 -57.5t145 -103t98.5 -160t37.5 -222v-64h-977q0 -78 30 -137t81.5 -93.5t112.5 -51.5t130 -17q51 0 102 11.5t98.5 42.5t62.5 77h331q-7 -62 -40 -112t-83.5 -83.5t-109.5 -58t-126.5 -37 t-126.5 -18.5t-116 -6q-152 0 -269.5 31t-192 82t-122 123.5t-66.5 149.5t-19 167zM377 1487h350l238 -287h-234zM432 629h653q-13 132 -101 193t-226 61q-126 0 -219.5 -65t-106.5 -189z" />
<glyph unicode="&#xe9;" horiz-adv-x="1517" d="M109 514q0 90 19 167t66.5 149.5t122 123.5t192 82t269.5 31q94 0 180 -16.5t170 -57.5t145 -103t98.5 -160t37.5 -222v-64h-977q0 -78 30 -137t81.5 -93.5t112.5 -51.5t130 -17q51 0 102 11.5t98.5 42.5t62.5 77h331q-7 -62 -40 -112t-83.5 -83.5t-109.5 -58t-126.5 -37 t-126.5 -18.5t-116 -6q-152 0 -269.5 31t-192 82t-122 123.5t-66.5 149.5t-19 167zM432 629h653q-13 132 -101 193t-226 61q-126 0 -219.5 -65t-106.5 -189zM604 1200l238 287h350l-354 -287h-234z" />
<glyph unicode="&#xea;" horiz-adv-x="1517" d="M109 514q0 90 19 167t66.5 149.5t122 123.5t192 82t269.5 31q94 0 180 -16.5t170 -57.5t145 -103t98.5 -160t37.5 -222v-64h-977q0 -78 30 -137t81.5 -93.5t112.5 -51.5t130 -17q51 0 102 11.5t98.5 42.5t62.5 77h331q-7 -62 -40 -112t-83.5 -83.5t-109.5 -58t-126.5 -37 t-126.5 -18.5t-116 -6q-152 0 -269.5 31t-192 82t-122 123.5t-66.5 149.5t-19 167zM375 1200l237 287h344l238 -287h-225l-185 164l-184 -164h-225zM432 629h653q-13 132 -101 193t-226 61q-126 0 -219.5 -65t-106.5 -189z" />
<glyph unicode="&#xeb;" horiz-adv-x="1517" d="M109 514q0 90 19 167t66.5 149.5t122 123.5t192 82t269.5 31q94 0 180 -16.5t170 -57.5t145 -103t98.5 -160t37.5 -222v-64h-977q0 -78 30 -137t81.5 -93.5t112.5 -51.5t130 -17q51 0 102 11.5t98.5 42.5t62.5 77h331q-7 -62 -40 -112t-83.5 -83.5t-109.5 -58t-126.5 -37 t-126.5 -18.5t-116 -6q-152 0 -269.5 31t-192 82t-122 123.5t-66.5 149.5t-19 167zM381 1237v242h250v-242h-250zM432 629h653q-13 132 -101 193t-226 61q-126 0 -219.5 -65t-106.5 -189zM938 1237v242h250v-242h-250z" />
<glyph unicode="&#xec;" horiz-adv-x="606" d="M-104 1487h350l237 -287h-233zM147 0v1028h312v-1028h-312z" />
<glyph unicode="&#xed;" horiz-adv-x="606" d="M123 1200l237 287h351l-355 -287h-233zM147 0v1028h312v-1028h-312z" />
<glyph unicode="&#xee;" horiz-adv-x="606" d="M-106 1200l237 287h344l238 -287h-226l-184 164l-184 -164h-225zM147 0v1028h312v-1028h-312z" />
<glyph unicode="&#xef;" horiz-adv-x="606" d="M-100 1237v242h250v-242h-250zM147 0v1028h312v-1028h-312zM457 1237v242h250v-242h-250z" />
<glyph unicode="&#xf0;" d="M88 514q0 108 32 197.5t88 152.5t132.5 106.5t165 64t186.5 20.5q159 0 303 -72l4 4q-87 140 -292 260l-328 -141l-96 131l241 104q-124 50 -258 70l168 176q151 -3 391 -117l273 117l96 -131l-197 -84q85 -56 138 -112q292 -310 292 -687q0 -294 -171.5 -453 t-497.5 -159q-152 0 -270 31t-192 82t-122 123.5t-67 150t-19 166.5zM412 514q0 -159 88 -257.5t258 -98.5t258 98.5t88 257.5t-88 257.5t-258 98.5t-258 -98.5t-88 -257.5z" />
<glyph unicode="&#xf1;" d="M145 1028h299q9 -128 9 -170h4q150 209 434 209q59 0 120 -12.5t125 -44.5t113.5 -79.5t81 -124.5t31.5 -173v-633h-311v545q0 92 -20 155.5t-58 97t-83.5 47t-105.5 13.5q-62 0 -118 -22t-101.5 -64.5t-72.5 -114t-27 -161.5v-496h-311v784q0 96 -9 244zM305 1217 q11 121 82.5 191.5t190.5 70.5q35 0 133 -29l110 -31q85 -24 129 -24q90 0 115 84h145q-30 -136 -97.5 -199t-174.5 -63q-63 0 -143 22l-109 31q-91 24 -127 24q-45 0 -69.5 -16.5t-43.5 -60.5h-141z" />
<glyph unicode="&#xf2;" d="M88 514q0 89 19 166.5t67 150t122 123.5t192 82t270 31t269.5 -31t192 -82t122 -123.5t66.5 -149.5t19 -167t-19 -167t-66.5 -149.5t-122 -123.5t-192 -82t-269.5 -31t-270 31t-192 82t-122 123.5t-67 150t-19 166.5zM350 1487h350l238 -287h-233zM412 514 q0 -159 88 -257.5t258 -98.5t258 98.5t88 257.5t-88 257.5t-258 98.5t-258 -98.5t-88 -257.5z" />
<glyph unicode="&#xf3;" d="M88 514q0 89 19 166.5t67 150t122 123.5t192 82t270 31t269.5 -31t192 -82t122 -123.5t66.5 -149.5t19 -167t-19 -167t-66.5 -149.5t-122 -123.5t-192 -82t-269.5 -31t-270 31t-192 82t-122 123.5t-67 150t-19 166.5zM412 514q0 -159 88 -257.5t258 -98.5t258 98.5 t88 257.5t-88 257.5t-258 98.5t-258 -98.5t-88 -257.5zM578 1200l237 287h350l-354 -287h-233z" />
<glyph unicode="&#xf4;" d="M88 514q0 89 19 166.5t67 150t122 123.5t192 82t270 31t269.5 -31t192 -82t122 -123.5t66.5 -149.5t19 -167t-19 -167t-66.5 -149.5t-122 -123.5t-192 -82t-269.5 -31t-270 31t-192 82t-122 123.5t-67 150t-19 166.5zM348 1200l238 287h344l237 -287h-225l-184 164 l-185 -164h-225zM412 514q0 -159 88 -257.5t258 -98.5t258 98.5t88 257.5t-88 257.5t-258 98.5t-258 -98.5t-88 -257.5z" />
<glyph unicode="&#xf5;" d="M88 514q0 89 19 166.5t67 150t122 123.5t192 82t270 31t269.5 -31t192 -82t122 -123.5t66.5 -149.5t19 -167t-19 -167t-66.5 -149.5t-122 -123.5t-192 -82t-269.5 -31t-270 31t-192 82t-122 123.5t-67 150t-19 166.5zM305 1217q11 121 82.5 191.5t190.5 70.5 q35 0 133 -29l110 -31q85 -24 129 -24q90 0 115 84h145q-30 -136 -97.5 -199t-174.5 -63q-63 0 -143 22l-109 31q-91 24 -127 24q-45 0 -69.5 -16.5t-43.5 -60.5h-141zM412 514q0 -159 88 -257.5t258 -98.5t258 98.5t88 257.5t-88 257.5t-258 98.5t-258 -98.5t-88 -257.5z " />
<glyph unicode="&#xf6;" d="M88 514q0 89 19 166.5t67 150t122 123.5t192 82t270 31t269.5 -31t192 -82t122 -123.5t66.5 -149.5t19 -167t-19 -167t-66.5 -149.5t-122 -123.5t-192 -82t-269.5 -31t-270 31t-192 82t-122 123.5t-67 150t-19 166.5zM354 1237v242h250v-242h-250zM412 514 q0 -159 88 -257.5t258 -98.5t258 98.5t88 257.5t-88 257.5t-258 98.5t-258 -98.5t-88 -257.5zM911 1237v242h250v-242h-250z" />
<glyph unicode="&#xf7;" horiz-adv-x="1228" d="M96 403v230h1037v-230h-1037zM436 94q0 74 52 126t126 52t126.5 -52.5t52.5 -125.5t-52.5 -125.5t-126.5 -52.5t-126 52t-52 126zM436 942q0 74 52 126t126 52t126.5 -52.5t52.5 -125.5t-52.5 -125.5t-126.5 -52.5t-126 52t-52 126z" />
<glyph unicode="&#xf8;" d="M88 514q0 89 19 166.5t67 150t122 123.5t192 82t270 31q225 0 366 -63l156 170l88 -80l-137 -150q196 -139 196 -430q0 -90 -19 -167t-66.5 -149.5t-122 -123.5t-192 -82t-269.5 -31q-226 0 -367 66l-155 -172l-89 79l138 150q-197 141 -197 430zM412 514q0 -135 63 -221 l481 520q-77 57 -198 57q-170 0 -258 -98.5t-88 -257.5zM559 209q76 -51 199 -51q170 0 258 98.5t88 257.5q0 133 -64 221z" />
<glyph unicode="&#xf9;" d="M154 395v633h311v-545q0 -92 20 -155.5t57.5 -97t83 -47t105.5 -13.5q62 0 118.5 22t102 64.5t72.5 114t27 161.5v496h311v-784q0 -48 4 -131t4 -113h-299q-8 114 -8 170h-4q-150 -209 -434 -209q-59 0 -120 12.5t-125 44.5t-113.5 79.5t-81 124.5t-31.5 173zM350 1487 h350l238 -287h-233z" />
<glyph unicode="&#xfa;" d="M154 395v633h311v-545q0 -92 20 -155.5t57.5 -97t83 -47t105.5 -13.5q62 0 118.5 22t102 64.5t72.5 114t27 161.5v496h311v-784q0 -48 4 -131t4 -113h-299q-8 114 -8 170h-4q-150 -209 -434 -209q-59 0 -120 12.5t-125 44.5t-113.5 79.5t-81 124.5t-31.5 173zM578 1200 l237 287h350l-354 -287h-233z" />
<glyph unicode="&#xfb;" d="M154 395v633h311v-545q0 -92 20 -155.5t57.5 -97t83 -47t105.5 -13.5q62 0 118.5 22t102 64.5t72.5 114t27 161.5v496h311v-784q0 -48 4 -131t4 -113h-299q-8 114 -8 170h-4q-150 -209 -434 -209q-59 0 -120 12.5t-125 44.5t-113.5 79.5t-81 124.5t-31.5 173zM348 1200 l238 287h344l237 -287h-225l-184 164l-185 -164h-225z" />
<glyph unicode="&#xfc;" d="M154 395v633h311v-545q0 -92 20 -155.5t57.5 -97t83 -47t105.5 -13.5q62 0 118.5 22t102 64.5t72.5 114t27 161.5v496h311v-784q0 -48 4 -131t4 -113h-299q-8 114 -8 170h-4q-150 -209 -434 -209q-59 0 -120 12.5t-125 44.5t-113.5 79.5t-81 124.5t-31.5 173zM354 1237 v242h250v-242h-250zM911 1237v242h250v-242h-250z" />
<glyph unicode="&#xfd;" horiz-adv-x="1517" d="M23 1028h368l381 -743l385 743h338l-772 -1421h-356l223 397zM580 1200l237 287h350l-354 -287h-233z" />
<glyph unicode="&#xfe;" horiz-adv-x="1517" d="M139 -393v1872h299v-592h4q62 94 173.5 137t246.5 43q139 0 249 -44t178.5 -120t104.5 -173t36 -208q0 -95 -20.5 -176t-54.5 -137.5t-81 -101t-96.5 -71.5t-105.5 -44.5t-104 -24t-94 -6.5q-287 0 -419 180h-4v-534h-312zM451 514q0 -150 91 -253t236 -103t236.5 103 t91.5 253t-91.5 253t-236.5 103t-236 -103t-91 -253z" />
<glyph unicode="&#xff;" horiz-adv-x="1517" d="M23 1028h368l381 -743l385 743h338l-772 -1421h-356l223 397zM356 1237v242h250v-242h-250zM913 1237v242h250v-242h-250z" />
<glyph unicode="&#x152;" horiz-adv-x="2578" d="M94 748q0 159 45 286t123 211.5t188 140.5t235 80.5t269 24.5q122 0 263 -6t294 -6h897v-242h-757v-348h729v-242h-729v-405h794v-242h-962q-118 0 -232 -6q-117 -6 -233 -6q-158 0 -295 27t-254 86t-199.5 147t-129 215.5t-46.5 284.5zM438 737q0 -124 46.5 -222.5 t127.5 -160t186 -93.5t226 -32q137 0 295 33v963q-137 24 -287 24q-101 0 -188 -17.5t-162.5 -57t-129 -98.5t-84 -145.5t-30.5 -193.5z" />
<glyph unicode="&#x153;" horiz-adv-x="2426" d="M88 514q0 89 18.5 166.5t64 150t114.5 124t176.5 82t243.5 30.5q358 0 507 -180q198 180 488 180q141 0 248 -27t176.5 -74.5t113.5 -118t62 -151.5t18 -182v-70h-923q2 -141 84.5 -220t230.5 -79q36 0 72.5 7t77 23t71 50t41.5 82h324q-7 -77 -46 -138t-97 -99 t-134 -63.5t-152 -35.5t-157 -10q-162 0 -291.5 49t-206.5 137q-90 -94 -220.5 -140t-256.5 -46q-145 0 -259 33t-185.5 87t-118.5 127.5t-65.5 148.5t-18.5 157zM412 530q0 -171 85.5 -271.5t250.5 -100.5q66 0 126 24t107 68.5t74.5 115.5t27.5 158q0 174 -94.5 266.5 t-240.5 92.5q-147 0 -241.5 -93t-94.5 -260zM1395 629h600q0 119 -76.5 186.5t-212.5 67.5q-129 0 -219.5 -71t-91.5 -183z" />
<glyph unicode="&#x178;" horiz-adv-x="1820" d="M29 1479h434l467 -633l469 633h393l-713 -916v-563h-331v563zM508 1612v241h250v-241h-250zM1065 1612v241h250v-241h-250z" />
<glyph unicode="&#x2c6;" horiz-adv-x="606" d="M-106 1200l237 287h344l238 -287h-226l-184 164l-184 -164h-225z" />
<glyph unicode="&#x2dc;" horiz-adv-x="606" d="M-150 1217q11 121 82.5 191.5t190.5 70.5q35 0 133 -29l111 -31q85 -24 129 -24q89 0 114 84h146q-30 -136 -97.5 -199t-175.5 -63q-63 0 -143 22l-109 31q-91 24 -127 24q-45 0 -69 -16.5t-43 -60.5h-142z" />
<glyph unicode="&#x2000;" horiz-adv-x="945" />
<glyph unicode="&#x2001;" horiz-adv-x="1890" />
<glyph unicode="&#x2002;" horiz-adv-x="945" />
<glyph unicode="&#x2003;" horiz-adv-x="1890" />
<glyph unicode="&#x2004;" horiz-adv-x="630" />
<glyph unicode="&#x2005;" horiz-adv-x="472" />
<glyph unicode="&#x2006;" horiz-adv-x="315" />
<glyph unicode="&#x2007;" horiz-adv-x="315" />
<glyph unicode="&#x2008;" horiz-adv-x="236" />
<glyph unicode="&#x2009;" horiz-adv-x="378" />
<glyph unicode="&#x200a;" horiz-adv-x="105" />
<glyph unicode="&#x2010;" horiz-adv-x="757" d="M94 432v230h570v-230h-570z" />
<glyph unicode="&#x2011;" horiz-adv-x="757" d="M94 432v230h570v-230h-570z" />
<glyph unicode="&#x2012;" horiz-adv-x="757" d="M94 432v230h570v-230h-570z" />
<glyph unicode="&#x2013;" horiz-adv-x="1024" d="M0 432v230h1024v-230h-1024z" />
<glyph unicode="&#x2014;" horiz-adv-x="2048" d="M0 432v230h2048v-230h-2048z" />
<glyph unicode="&#x2018;" horiz-adv-x="757" d="M125 1020l266 459h242l-176 -459h-332z" />
<glyph unicode="&#x2019;" horiz-adv-x="757" d="M125 1020l176 459h332l-266 -459h-242z" />
<glyph unicode="&#x201a;" horiz-adv-x="757" d="M104 -276l177 458h331l-266 -458h-242z" />
<glyph unicode="&#x201c;" horiz-adv-x="1366" d="M137 1020l266 459h242l-176 -459h-332zM721 1020l266 459h242l-176 -459h-332z" />
<glyph unicode="&#x201d;" horiz-adv-x="1366" d="M137 1020l176 459h332l-266 -459h-242zM721 1020l176 459h332l-266 -459h-242z" />
<glyph unicode="&#x201e;" horiz-adv-x="1366" d="M137 -276l176 458h332l-266 -458h-242zM721 -276l176 458h332l-266 -458h-242z" />
<glyph unicode="&#x2022;" horiz-adv-x="1024" d="M141 739q0 154 108.5 262.5t262.5 108.5t262.5 -108.5t108.5 -262.5t-108.5 -262t-262.5 -108t-262.5 108t-108.5 262z" />
<glyph unicode="&#x2026;" horiz-adv-x="2048" d="M199 0v287h286v-287h-286zM881 0v287h286v-287h-286zM1563 0v287h286v-287h-286z" />
<glyph unicode="&#x202f;" horiz-adv-x="378" />
<glyph unicode="&#x2039;" horiz-adv-x="757" d="M106 547l271 397h274l-233 -397l233 -397h-274z" />
<glyph unicode="&#x203a;" horiz-adv-x="757" d="M106 150l234 397l-234 397h275l270 -397l-270 -397h-275z" />
<glyph unicode="&#x205f;" horiz-adv-x="472" />
<glyph unicode="&#x2122;" horiz-adv-x="2048" d="M43 1307v172h696v-172h-233v-672h-230v672h-233zM897 635v844h311l197 -512l194 512h312v-844h-217v575h-4l-203 -575h-166l-203 575h-4v-575h-217z" />
<glyph unicode="&#x25fc;" horiz-adv-x="1024" d="M0 0v1024h1024v-1024h-1024z" />
<glyph unicode="&#xfb01;" horiz-adv-x="1669" d="M51 831v197h266v88q0 201 107 288t334 87q155 0 266 -12v-193q-3 0 -57.5 4t-83.5 4q-103 0 -158.5 -25t-75.5 -73.5t-20 -136.5v-31h319v-197h-319v-831h-312v831h-266zM1178 1229v250h344v-250h-344zM1194 0v1028h311v-1028h-311z" />
<glyph unicode="&#xfb02;" horiz-adv-x="1669" d="M51 831v197h266v88q0 201 107 288t334 87q155 0 266 -12v-193q-3 0 -57.5 4t-83.5 4q-103 0 -158.5 -25t-75.5 -73.5t-20 -136.5v-31h319v-197h-319v-831h-312v831h-266zM1194 0v1479h311v-1479h-311z" />
</font>
</defs>
</svg>
